HIERARCHY
ROOT root
{
	OFFSET 0.000000 0.000000 0.000000
	CHANNELS 6 Xposition Yposition Zposition Zrotation Yrotation Xrotation
	JOINT lhip
	{
		OFFSET 0.058581 -0.082280 -0.017664
		CHANNELS 3 Zrotation Yrotation Xrotation
		JOINT lknee
		{
			OFFSET 0.043451 -0.386469 0.008037
			CHANNELS 3 Zrotation Yrotation Xrotation
			JOINT lankle
			{
				OFFSET -0.014790 -0.426874 -0.037428
				CHANNELS 3 Zrotation Yrotation Xrotation
				JOINT ltoe
				{
					OFFSET 0.041054 -0.060286 0.122042
					CHANNELS 3 Zrotation Yrotation Xrotation
					End Site
					{
						OFFSET 0.000000 0.000000 0.000000
					}
				}
			}
		}
	}
	JOINT rhip
	{
		OFFSET -0.060310 -0.090513 -0.013543
		CHANNELS 3 Zrotation Yrotation Xrotation
		JOINT rknee
		{
			OFFSET -0.043257 -0.383688 -0.004843
			CHANNELS 3 Zrotation Yrotation Xrotation
			JOINT rankle
			{
				OFFSET 0.019056 -0.420046 -0.034562
				CHANNELS 3 Zrotation Yrotation Xrotation
				JOINT rtoe
				{
					OFFSET -0.034840 -0.062106 0.130323
					CHANNELS 3 Zrotation Yrotation Xrotation
					End Site
					{
						OFFSET 0.000000 0.000000 0.000000
					}
				}
			}
		}
	}
	JOINT lowerback
	{
		OFFSET 0.004439 0.124404 -0.038385
		CHANNELS 3 Zrotation Yrotation Xrotation
		JOINT upperback
		{
			OFFSET 0.004488 0.137956 0.026820
			CHANNELS 3 Zrotation Yrotation Xrotation
			JOINT chest
			{
				OFFSET -0.002265 0.056032 0.002855
				CHANNELS 3 Zrotation Yrotation Xrotation
				JOINT lowerneck
				{
					OFFSET -0.013390 0.211636 -0.033468
					CHANNELS 3 Zrotation Yrotation Xrotation
					JOINT upperneck
					{
						OFFSET 0.010113 0.088937 0.050410
						CHANNELS 3 Zrotation Yrotation Xrotation
						End Site
						{
							OFFSET 0.000000 0.000000 0.000000
						}
					}
				}
				JOINT lclavicle
				{
					OFFSET 0.071702 0.114000 -0.018898
					CHANNELS 3 Zrotation Yrotation Xrotation
					JOINT lshoulder
					{
						OFFSET 0.122921 0.045205 -0.019046
						CHANNELS 3 Zrotation Yrotation Xrotation
						JOINT lelbow
						{
							OFFSET 0.255332 -0.015649 -0.022946
							CHANNELS 3 Zrotation Yrotation Xrotation
							JOINT lwrist
							{
								OFFSET 0.265709 0.012698 -0.007375
								CHANNELS 3 Zrotation Yrotation Xrotation
								End Site
								{
									OFFSET 0.000000 0.000000 0.000000
								}
							}
						}
					}
				}
				JOINT rclavicle
				{
					OFFSET -0.082954 0.112472 -0.023707
					CHANNELS 3 Zrotation Yrotation Xrotation
					JOINT rshoulder
					{
						OFFSET -0.113228 0.046853 -0.008472
						CHANNELS 3 Zrotation Yrotation Xrotation
						JOINT relbow
						{
							OFFSET -0.260127 -0.014369 -0.031269
							CHANNELS 3 Zrotation Yrotation Xrotation
							JOINT rwrist
							{
								OFFSET -0.269108 0.006794 -0.006027
								CHANNELS 3 Zrotation Yrotation Xrotation
								End Site
								{
									OFFSET 0.000000 0.000000 0.000000
								}
							}
						}
					}
				}
			}
		}
	}
}
MOTION
Frames: 16
Frame Time: 0.033333
0.007988 0.227235 0.998485 94.068457 0.930463 87.695869 3.474699 2.548548 3.355718 0.515757 -9.039140 -0.865438 -1.099012 5.537134 -3.080437 0.000000 -0.000000 0.000000 -1.680083 -4.653967 5.020805 -2.302018 1.314715 -2.865787 3.077142 -5.719319 -3.678301 0.000000 -0.000000 0.000000 -0.910138 1.794411 2.397772 0.253691 -4.154021 4.381368 0.114969 -1.957133 -4.177544 1.993745 -6.021962 -2.752850 5.247888 -6.987301 6.089338 -24.939317 -6.625842 7.970789 -56.729465 -6.950328 14.325880 2.459743 -20.147546 23.940769 -7.169767 -6.934298 5.767612 21.137570 9.464435 4.422162 61.950648 6.763268 15.353917 -5.449209 16.655621 12.274390 19.383144 1.950257 -5.527337 
0.008120 0.227162 0.998453 94.048125 1.012713 87.658599 3.608600 2.562382 3.412852 0.457125 -9.026245 -0.881011 -1.293670 5.489459 -3.072160 0.000000 -0.000000 0.000000 -1.569142 -4.672419 5.070443 -2.339320 1.298461 -2.880302 3.056788 -5.689021 -3.644602 0.000000 -0.000000 0.000000 -0.728331 1.766673 2.570861 0.106021 -4.101804 4.031404 0.127307 -1.972047 -4.003597 2.014688 -5.992395 -2.684497 5.189275 -6.952118 6.149265 -24.951382 -6.771078 8.054484 -56.740971 -6.860470 14.145500 2.600616 -20.088839 23.689788 -7.449248 -7.217988 6.073541 21.073011 9.538642 4.424606 62.068408 6.697576 15.282701 -5.460631 16.622762 12.371425 19.435401 2.140976 -5.428633 
0.008114 0.227144 0.998458 94.078227 1.013401 87.659786 3.602138 2.604703 3.384460 0.484803 -9.044025 -0.835410 -1.273022 5.486831 -3.144151 0.000000 -0.000000 0.000000 -1.551839 -4.707278 5.056855 -2.376499 1.322104 -2.830062 3.011994 -5.726871 -3.688952 0.000000 -0.000000 0.000000 -0.721149 1.757655 2.606493 0.081259 -4.093249 3.980752 0.115283 -1.973895 -3.971612 2.020545 -5.956405 -2.770966 5.180484 -6.932715 6.234320 -24.934851 -6.807081 8.029592 -56.737102 -6.872519 14.107050 2.588739 -20.014393 23.684220 -7.394070 -7.240725 6.144353 21.085551 9.553718 4.415176 62.097816 6.660120 15.271028 -5.524046 16.663522 12.335523 19.438623 2.115455 -5.316202 
0.008173 0.227180 0.998420 94.052618 1.023571 87.653842 3.606391 2.585544 3.405823 0.462321 -9.010914 -0.840234 -1.256230 5.514793 -3.121734 0.000000 -0.000000 0.000000 -1.544621 -4.703285 5.064313 -2.372174 1.339634 -2.838600 3.020347 -5.712224 -3.703859 0.000000 -0.000000 0.000000 -0.724275 1.773458 2.620888 0.076372 -4.083621 3.967698 0.107876 -1.968927 -3.970050 2.019827 -5.931520 -2.740699 5.148160 -6.904805 6.279624 -24.899571 -6.779411 8.016833 -56.742574 -6.872946 14.114526 2.542976 -20.035995 23.766296 -7.420441 -7.231454 6.089460 21.072376 9.533987 4.419373 62.112885 6.684137 15.288193 -5.514758 16.633411 12.367919 19.427859 2.107660 -5.293421 
0.008244 0.227161 0.998445 94.030720 1.026339 87.647770 3.609771 2.566228 3.420311 0.477599 -8.997910 -0.842912 -1.251215 5.519363 -3.090359 0.000000 -0.000000 0.000000 -1.541933 -4.708560 5.066889 -2.381529 1.339783 -2.831786 3.096338 -5.684609 -3.627985 0.000000 -0.000000 0.000000 -0.742802 1.785140 2.629193 0.068985 -4.081788 3.969756 0.118901 -1.970195 -4.014165 1.996875 -5.898716 -2.643138 5.110076 -6.856827 6.347125 -24.888901 -6.744596 8.029519 -56.748225 -6.866761 14.110266 2.523458 -20.069602 23.864595 -7.423637 -7.187159 6.022600 21.053871 9.520246 4.431052 62.139520 6.673973 15.299097 -5.501717 16.635906 12.395895 19.458034 2.138257 -5.414411 
0.008277 0.227192 0.998440 94.025183 1.029180 87.628380 3.610273 2.556514 3.439307 0.474649 -8.968261 -0.840281 -1.269789 5.517101 -3.100654 0.000000 -0.000000 0.000000 -1.537323 -4.712324 5.082829 -2.392001 1.365033 -2.817767 3.005410 -5.697414 -3.703207 0.000000 -0.000000 0.000000 -0.744825 1.803119 2.628651 0.064223 -4.080020 4.018951 0.106390 -1.969984 -4.035962 1.972371 -5.866814 -2.617129 5.079010 -6.876155 6.372393 -24.925061 -6.786222 8.063346 -56.722232 -6.857423 14.080956 2.586462 -20.113798 23.795033 -7.553545 -7.159105 6.042391 21.032683 9.522422 4.475861 62.163901 6.706207 15.266108 -5.535951 16.653141 12.371009 19.534409 2.125992 -5.458595 
0.008275 0.227199 0.998410 94.046456 1.050268 87.602007 3.628820 2.547335 3.467019 0.494189 -8.989074 -0.835980 -1.273944 5.521754 -3.103518 0.000000 -0.000000 0.000000 -1.511666 -4.711590 5.112927 -2.389507 1.334119 -2.822658 3.035867 -5.678486 -3.695246 0.000000 -0.000000 0.000000 -0.712365 1.790416 2.696019 0.051013 -4.075758 3.956676 0.091392 -1.996857 -3.991617 1.971352 -5.812253 -2.680137 4.986530 -6.883001 6.540040 -24.923397 -6.760623 8.025826 -56.723349 -6.883158 14.106671 2.584132 -20.049069 23.835385 -7.457992 -7.274085 6.062839 21.005071 9.483828 4.455426 62.197988 6.723442 15.331652 -5.540257 16.656527 12.486369 19.293134 2.210361 -5.397393 
0.008223 0.227246 0.998414 94.055316 1.038763 87.630455 3.618203 2.569267 3.418558 0.458787 -8.996133 -0.816507 -1.232777 5.517958 -3.100869 0.000000 -0.000000 0.000000 -1.530451 -4.711118 5.063799 -2.386963 1.336976 -2.780569 3.070601 -5.722401 -3.681753 0.000000 -0.000000 0.000000 -0.752723 1.787250 2.654343 0.040233 -4.048779 3.973410 0.090070 -1.991471 -3.948577 1.971338 -5.740237 -2.596831 5.017864 -6.793342 6.588322 -24.893792 -6.754510 8.035022 -56.725073 -6.914681 14.146102 2.574257 -20.092630 23.860836 -7.411642 -7.242037 5.973025 20.975210 9.526636 4.467508 62.117815 6.717570 15.408266 -5.423513 16.715649 12.541650 19.342550 2.266124 -5.684428 
0.008196 0.227206 0.998418 94.012301 1.062066 87.626091 3.649048 2.542611 3.429628 0.446010 -8.978003 -0.826163 -1.191389 5.562719 -3.097680 0.000000 -0.000000 0.000000 -1.504173 -4.698269 5.036714 -2.369527 1.375533 -2.740751 3.038453 -5.720821 -3.743561 0.000000 -0.000000 0.000000 -0.765649 1.819836 2.663614 0.050267 -4.005129 3.962197 0.091317 -1.962194 -3.963832 1.940935 -5.719126 -2.368622 4.973869 -6.766215 6.746721 -24.825171 -6.705473 8.035460 -56.779573 -6.946931 14.151026 2.537233 -20.097462 24.036475 -7.388738 -7.206674 5.771731 20.936170 9.523549 4.562288 62.096084 6.622504 15.466302 -5.529876 16.964200 12.701291 19.125967 2.439656 -5.716217 
0.008205 0.227201 0.998465 94.065771 1.069282 87.633557 3.654952 2.517201 3.357924 0.403211 -8.927261 -0.693406 -1.225310 5.590881 -3.151645 0.000000 -0.000000 0.000000 -1.479752 -4.659679 5.019352 -2.371735 1.344643 -2.690958 3.041265 -5.787514 -3.809010 0.000000 -0.000000 0.000000 -0.773113 1.793558 2.689385 0.044803 -3.998705 3.961365 0.062023 -1.962856 -3.985449 2.024076 -5.661749 -2.361126 4.884521 -6.729439 7.028532 -24.918296 -6.617311 8.117146 -56.524913 -6.984610 14.026027 2.535301 -20.295282 24.040242 -7.522756 -7.592876 5.673853 21.040632 9.480592 4.701862 61.751351 6.549224 15.469416 -5.485361 17.421245 12.901786 18.929446 2.865376 -5.967251 
0.008279 0.227080 0.998563 94.035542 1.063703 87.643635 3.614843 2.350406 3.345688 0.425132 -8.906102 -0.647386 -1.197231 5.594225 -3.222434 0.000000 -0.000000 0.000000 -1.455770 -4.512671 4.952918 -2.386658 1.313668 -2.558096 3.008800 -5.837252 -3.888085 0.000000 -0.000000 0.000000 -0.742235 1.741150 2.761254 0.013142 -3.965705 3.975811 -0.022073 -2.031691 -4.168421 2.235387 -5.556847 -2.418244 4.661770 -6.691866 7.554458 -25.221572 -6.228384 8.244472 -55.854542 -6.851080 13.592514 3.039548 -21.254944 23.759042 -8.971002 -8.164703 6.287497 21.346819 9.318079 4.940794 61.183008 6.597552 15.311851 -5.589836 18.049386 13.087828 20.072280 3.180134 -5.770088 
0.007641 0.226585 0.999141 94.158787 1.039876 87.913586 3.578762 2.465694 2.712588 0.301793 -8.988205 -0.122735 -1.165679 5.506321 -3.451013 0.000000 -0.000000 0.000000 -1.431586 -4.332111 4.446013 -2.349712 1.180285 -2.125867 2.921678 -6.014071 -4.042300 0.000000 -0.000000 0.000000 -0.776763 1.392116 2.686161 0.020300 -3.764173 3.748742 -0.157774 -2.022307 -4.247537 2.658469 -5.494507 -2.436103 4.412231 -6.639262 8.055280 -25.449519 -5.106959 7.987328 -54.331116 -6.686534 12.942878 3.227358 -23.801019 23.543349 -11.831966 -8.603651 6.359657 21.832206 8.641674 4.935793 60.163241 6.588984 15.119309 -5.555330 19.446826 13.191460 22.608008 3.374078 -5.800277 
0.007192 0.226148 0.999967 94.121094 0.946866 87.988884 3.372178 2.208997 2.232953 0.220590 -8.820156 0.667153 -1.029064 5.622659 -3.799997 0.000000 -0.000000 0.000000 -1.591446 -4.306734 4.018791 -2.203149 1.318721 -1.481306 2.882147 -6.153869 -4.243788 0.000000 -0.000000 0.000000 -0.871921 1.397960 2.300733 0.248581 -3.487106 3.908179 -0.340808 -1.953873 -3.962610 3.056759 -5.177124 -2.648543 3.999994 -7.127682 8.565719 -24.919060 -3.486962 7.333616 -52.243014 -7.554515 11.743830 2.986992 -27.387170 23.006691 -16.471804 -9.035234 5.530433 22.185898 7.283948 4.515844 58.668417 6.870846 14.687461 -5.883340 21.867176 12.718751 27.245070 3.583496 -6.809303 
0.006590 0.225834 1.000973 94.038575 0.880363 87.949783 3.140458 1.776581 1.786440 0.161783 -8.822665 1.639318 -0.809878 6.087285 -4.176517 0.000000 -0.000000 0.000000 -1.687931 -4.294094 3.617949 -2.137910 1.619212 -0.711874 2.948249 -6.393440 -4.493288 0.000000 -0.000000 0.000000 -0.856009 1.445744 2.276481 0.521490 -3.259975 3.465038 -0.357516 -1.792677 -3.403356 3.001584 -5.134204 -2.620946 3.529222 -7.330802 9.088387 -23.330551 -1.738082 6.350130 -49.998398 -8.193204 10.455509 2.810452 -33.062364 21.817074 -17.988069 -9.242237 4.698758 21.886358 6.035704 3.888230 56.686192 6.682892 14.260384 -6.296755 26.229048 11.860719 29.848242 4.060011 -7.756146 
0.005889 0.225806 1.002200 94.114911 0.725546 87.898804 2.790027 1.296863 1.130102 0.052916 -8.944146 2.958174 -0.589557 6.673886 -4.585341 0.000000 -0.000000 0.000000 -1.857698 -4.389515 3.118326 -2.111267 2.013721 0.282599 2.972326 -6.758206 -4.926157 0.000000 -0.000000 0.000000 -0.926678 1.468207 2.288403 0.946546 -3.194277 2.903412 -0.260332 -1.601581 -2.900436 2.653926 -4.949661 -2.297062 3.042063 -7.382933 9.654452 -21.354770 -0.388518 5.261405 -46.605485 -8.720208 8.939819 3.199989 -40.111126 20.024697 -18.153455 -9.522042 2.850259 21.173565 4.920770 3.224808 53.948619 6.359801 13.574621 -7.708251 32.236301 10.572287 31.334865 4.481249 -8.204450 
0.005667 0.226214 1.003227 94.334282 0.634906 87.882007 2.585369 0.809458 0.256373 -0.281182 -9.270985 4.664080 -0.455299 7.391286 -5.211490 0.000000 -0.000000 0.000000 -1.995867 -4.548081 2.581969 -1.990464 2.420712 1.408066 3.044219 -7.316965 -5.347466 0.000000 -0.000000 0.000000 -0.878950 1.361540 2.143241 1.428150 -3.372363 1.977055 -0.249089 -1.459077 -2.179748 2.451472 -4.448851 -1.569440 2.583517 -7.498926 10.277018 -18.598078 0.672786 3.717265 -42.288603 -9.307879 7.558074 4.520949 -46.950778 16.670655 -17.322747 -9.273772 -0.218943 19.972539 3.797264 1.953271 50.504526 6.556902 12.904164 -9.828631 38.309019 8.076625 31.391586 4.688815 -9.545308 
